<?xml version="1.0"?>
<svg id="Layer_1" style="enable-background:new 0 0 256 256;" version="1.1" viewBox="0 0 256 256" xml:space="preserve" xmlns="http://www.w3.org/2000/svg" xmlns:xlink="http://www.w3.org/1999/xlink">
	<g>
		<!-- <path fill="hsl(0, 0%, 21%)" d="M137.5,110.5c-3.5-2.1-7.1-4.2-10.7-6.2l-12.3-7.1c-7.6-4.4-16.2-9.4-24.6-14c-3.8-2.1-7.4-2.4-10.1-0.9   c-2.7,1.5-4.2,4.7-4.4,8.9c-0.2,6.5-0.2,13.2-0.1,20c0,2.9,0,5.9,0,8.8l-0.1,9c0,6.3-0.1,12.9,0.1,19.4c0.1,4.5,1.6,7.8,4.2,9.4   c1.2,0.7,2.5,1.1,4,1.1c2,0,4.1-0.6,6.4-1.7c0.5-0.2,1-0.5,1.4-0.8l8.8-5.1c12.6-7.3,25.2-14.5,37.8-21.9c1.6-0.9,2.9-1.9,4-3   c3.8-3.9,3.8-8.5-0.1-12.4C140.5,112.4,138.8,111.3,137.5,110.5z M133.1,120.6c-12.6,7.3-25.2,14.6-37.7,21.8l-8.8,5.1   c-0.3,0.2-0.6,0.3-0.9,0.5c-0.1,0.1-0.2,0.1-0.3,0.1c0-0.1,0-0.1,0-0.2c-0.1-6.3-0.1-12.8-0.1-19.3l0.1-8.7c0-3,0-5.9-0.1-9.3   c-0.1-6.2-0.1-12.5,0.1-18.7c8.2,4.5,16.7,9.4,24.2,13.8l12.3,7.1c3.5,2,7.1,4,10.5,6.1v0c0.3,0.2,1,0.6,1.6,1   C133.7,120.3,133.4,120.4,133.1,120.6z" /> -->
		<path fill="hsl(0, 0%, 21%)" d="M210.7,27.2H45.4C23,27.2,4.9,45.4,4.9,67.7v104.6c0,22.3,18.2,40.5,40.5,40.5h19.2v11c0,2.7,2.2,5,5,5c2.7,0,5-2.2,5-5   v-11h107v11c0,2.7,2.2,5,5,5c2.7,0,5-2.2,5-5v-11h19.2c22.3,0,40.5-18.2,40.5-40.5V67.7C251.1,45.4,233,27.2,210.7,27.2z    M241.2,172.3c0,16.8-13.7,30.6-30.6,30.6H45.4c-16.8,0-30.6-13.7-30.6-30.6V67.7c0-16.8,13.7-30.6,30.6-30.6h165.3   c16.8,0,30.6,13.7,30.6,30.6V172.3z" />
		<path fill="hsl(0, 0%, 21%)" d="M174.8,54.3H45.4c-7.4,0-13.4,6-13.4,13.4v104.6c0,7.4,6,13.4,13.4,13.4h129.4c7.4,0,13.4-6,13.4-13.4V67.7   C188.2,60.3,182.2,54.3,174.8,54.3z M178.2,172.3c0,1.9-1.6,3.5-3.5,3.5H45.4c-1.9,0-3.5-1.6-3.5-3.5V67.7c0-1.9,1.6-3.5,3.5-3.5   h129.4c1.9,0,3.5,1.6,3.5,3.5V172.3z" />
        <text x="50" y="115" font-family="sans-serif" font-size="50px" font-weight="bold" fill="hsl(204, 86%, 53%)">WEB</text>
        <text x="70" y="165" font-family="sans-serif" font-size="50px" font-weight="bold" fill="hsl(204, 86%, 53%)">TV</text>
		<circle fill="hsl(204, 86%, 53%)" cx="214.6" cy="95.4" r="6.3" />
		<circle fill="hsl(204, 86%, 53%)" cx="214.6" cy="67.3" r="6.3" />
	</g>
</svg>
