<?xml version="1.0" ?>
<!DOCTYPE svg PUBLIC '-//W3C//DTD SVG 1.1//EN' 'http://www.w3.org/Graphics/SVG/1.1/DTD/svg11.dtd'>
<svg height="512px" id="Layer_1" style="enable-background:new 0 0 512 512;" version="1.1" viewBox="0 0 512 512" width="512px" xml:space="preserve" xmlns="http://www.w3.org/2000/svg" xmlns:xlink="http://www.w3.org/1999/xlink">
    <g>adb5e2
        <g> <!-- 6171c8, adb5e2 -->
            <path d="M160,153.3c0,3.7-3,6.7-6.7,6.7h-50.5c-3.7,0-6.7-3-6.7-6.7v-50.5c0-3.7,3-6.7,6.7-6.7h50.5c3.7,0,6.7,3,6.7,6.7V153.3z" fill="#6171c8" />
            <path d="M224,153.3c0,3.7-3,6.7-6.7,6.7h-50.5c-3.7,0-6.7-3-6.7-6.7v-50.5c0-3.7,3-6.7,6.7-6.7h50.5c3.7,0,6.7,3,6.7,6.7V153.3z" fill="#6171c8"/> 
            <path d="M288,153.3c0,3.7-3,6.7-6.7,6.7h-50.5c-3.7,0-6.7-3-6.7-6.7v-50.5c0-3.7,3-6.7,6.7-6.7h50.5c3.7,0,6.7,3,6.7,6.7V153.3z" fill="#6171c8" />
            <path d="M352,153.3c0,3.7-3,6.7-6.7,6.7h-50.5c-3.7,0-6.7-3-6.7-6.7v-50.5c0-3.7,3-6.7,6.7-6.7h50.5c3.7,0,6.7,3,6.7,6.7V153.3z" fill="#6171c8" /> 
            <!-- <path d="M416,153.3c0,3.7-3,6.7-6.7,6.7h-50.5c-3.7,0-6.7-3-6.7-6.7v-50.5c0-3.7,3-6.7,6.7-6.7h50.5c3.7,0,6.7,3,6.7,6.7V153.3z" fill="#6171c8" /> -->
        </g>
        <g>
            <path d="M160,217.3c0,3.7-3,6.7-6.7,6.7h-50.5c-3.7,0-6.7-3-6.7-6.7v-50.5c0-3.7,3-6.7,6.7-6.7h50.5c3.7,0,6.7,3,6.7,6.7V281.3z" fill="#6171c8" /> 
            <!-- <path d="M224,217.3c0,3.7-3,6.7-6.7,6.7h-50.5c-3.7,0-6.7-3-6.7-6.7v-50.5c0-3.7,3-6.7,6.7-6.7h50.5c3.7,0,6.7,3,6.7,6.7V281.3z" fill="#ff8d00" />  -->
            <!-- <path d="M288,217.3c0,3.7-3,6.7-6.7,6.7h-50.5c-3.7,0-6.7-3-6.7-6.7v-50.5c0-3.7,3-6.7,6.7-6.7h50.5c3.7,0,6.7,3,6.7,6.7V153.3z" fill="#ff8d00" />  -->
            <path d="M352,217.3c0,3.7-3,6.7-6.7,6.7h-50.5c-3.7,0-6.7-3-6.7-6.7v-50.5c0-3.7,3-6.7,6.7-6.7h50.5c3.7,0,6.7,3,6.7,6.7V153.3z" fill="#ff8d00" /> 
            <!-- <path d="M416,217.3c0,3.7-3,6.7-6.7,6.7h-50.5c-3.7,0-6.7-3-6.7-6.7v-50.5c0-3.7,3-6.7,6.7-6.7h50.5c3.7,0,6.7,3,6.7,6.7V153.3z" fill="#6171c8" /> -->
        </g>
        <g>
            <path d="M160,281.3c0,3.7-3,6.7-6.7,6.7h-50.5c-3.7,0-6.7-3-6.7-6.7v-50.5c0-3.7,3-6.7,6.7-6.7h50.5c3.7,0,6.7,3,6.7,6.7V281.3z" fill="#6171c8" />
            <!-- <path d="M224,281.3c0,3.7-3,6.7-6.7,6.7h-50.5c-3.7,0-6.7-3-6.7-6.7v-50.5c0-3.7,3-6.7,6.7-6.7h50.5c3.7,0,6.7,3,6.7,6.7V281.3z" fill="#ff8d00" /> -->
            <path d="M288,281.3c0,3.7-3,6.7-6.7,6.7h-50.5c-3.7,0-6.7-3-6.7-6.7v-50.5c0-3.7,3-6.7,6.7-6.7h50.5c3.7,0,6.7,3,6.7,6.7V281.3z" fill="#6171c8" />
            <path d="M352,281.3c0,3.7-3,6.7-6.7,6.7h-50.5c-3.7,0-6.7-3-6.7-6.7v-50.5c0-3.7,3-6.7,6.7-6.7h50.5c3.7,0,6.7,3,6.7,6.7V281.3z" fill="#6171c8" /> 
            <!-- <path d="M416,281.3c0,3.7-3,6.7-6.7,6.7h-50.5c-3.7,0-6.7-3-6.7-6.7v-50.5c0-3.7,3-6.7,6.7-6.7h50.5c3.7,0,6.7,3,6.7,6.7V281.3z" fill="#6171c8" /> -->
        </g>
        <g>
            <path d="M160,345.3c0,3.7-3,6.7-6.7,6.7h-50.5c-3.7,0-6.7-3-6.7-6.7v-50.5c0-3.7,3-6.7,6.7-6.7h50.5c3.7,0,6.7,3,6.7,6.7V281.3z" fill="#6171c8" /> 
            <!-- <path d="M224,345.3c0,3.7-3,6.7-6.7,6.7h-50.5c-3.7,0-6.7-3-6.7-6.7v-50.5c0-3.7,3-6.7,6.7-6.7h50.5c3.7,0,6.7,3,6.7,6.7V409.3z" fill="#ff8d00" />  -->
            <!-- <path d="M288,345.3c0,3.7-3,6.7-6.7,6.7h-50.5c-3.7,0-6.7-3-6.7-6.7v-50.5c0-3.7,3-6.7,6.7-6.7h50.5c3.7,0,6.7,3,6.7,6.7V409.3z" fill="#ff8d00" />  -->
            <path d="M352,345.3c0,3.7-3,6.7-6.7,6.7h-50.5c-3.7,0-6.7-3-6.7-6.7v-50.5c0-3.7,3-6.7,6.7-6.7h50.5c3.7,0,6.7,3,6.7,6.7V281.3z" fill="#6171c8" /> 
            <!-- <path d="M416,345.3c0,3.7-3,6.7-6.7,6.7h-50.5c-3.7,0-6.7-3-6.7-6.7v-50.5c0-3.7,3-6.7,6.7-6.7h50.5c3.7,0,6.7,3,6.7,6.7V281.3z" fill="#6171c8" />  -->
        </g>
        <g>
            <path d="M160,409.3c0,3.7-3,6.7-6.7,6.7h-50.5c-3.7,0-6.7-3-6.7-6.7v-50.5c0-3.7,3-6.7,6.7-6.7h50.5c3.7,0,6.7,3,6.7,6.7V409.3z" fill="#6171c8" />
            <path d="M224,409.3c0,3.7-3,6.7-6.7,6.7h-50.5c-3.7,0-6.7-3-6.7-6.7v-50.5c0-3.7,3-6.7,6.7-6.7h50.5c3.7,0,6.7,3,6.7,6.7V409.3z" fill="#6171c8" /> 
            <path d="M288,409.3c0,3.7-3,6.7-6.7,6.7h-50.5c-3.7,0-6.7-3-6.7-6.7v-50.5c0-3.7,3-6.7,6.7-6.7h50.5c3.7,0,6.7,3,6.7,6.7V409.3z" fill="#6171c8" />
            <path d="M352,409.3c0,3.7-3,6.7-6.7,6.7h-50.5c-3.7,0-6.7-3-6.7-6.7v-50.5c0-3.7,3-6.7,6.7-6.7h50.5c3.7,0,6.7,3,6.7,6.7V409.3z" fill="#6171c8" /> 
            <!-- <path d="M416,409.3c0,3.7-3,6.7-6.7,6.7h-50.5c-3.7,0-6.7-3-6.7-6.7v-50.5c0-3.7,3-6.7,6.7-6.7h50.5c3.7,0,6.7,3,6.7,6.7V409.3z" fill="#6171c8"/> -->
        </g>
    </g>
</svg>